<svg xmlns:dc="http://purl.org/dc/elements/1.1/" xmlns:cc="http://creativecommons.org/ns#" xmlns:rdf="http://www.w3.org/1999/02/22-rdf-syntax-ns#" xmlns:svg="http://www.w3.org/2000/svg" xmlns="http://www.w3.org/2000/svg" xmlns:sodipodi="http://sodipodi.sourceforge.net/DTD/sodipodi-0.dtd" xmlns:inkscape="http://www.inkscape.org/namespaces/inkscape" version="1.1" x="0px" y="0px" viewBox="0 0 100 125"><g transform="translate(0,-952.36218)"><g transform="matrix(1.0714898,0,0,1.0714898,-24.744039,-65.565893)"><path style="" d="m 37.99518,988.11937 c -1.271637,-0.0104 -2.306804,1.00211 -2.317157,2.27374 l -0.390715,48.28039 7.667781,0 0.390714,-48.21527 c 0.01035,-1.27164 -1.007534,-2.3068 -2.27917,-2.31715 l -3.071453,-0.0217 z m 61.09262,0.0109 c -1.271678,0 -2.295449,1.02377 -2.295449,2.29544 l 0,48.24779 7.662349,0 0,-48.24779 c 0,-1.27167 -1.02377,-2.29544 -2.29545,-2.29544 l -3.07145,0 z m -33.682882,0.0814 c -0.07771,-0.002 -0.154061,-1.8e-4 -0.233344,0.005 l -3.066025,0.21707 c -1.268524,0.0896 -2.216789,1.17887 -2.127226,2.4474 l 3.375342,47.79196 7.68406,0 -3.413329,-48.3292 c -0.08397,-1.18924 -1.053803,-2.09753 -2.219478,-2.13265 z" fill="#000000" fill-opacity="1" stroke="none"/><path style="" d="m 66.652825,962.91951 -4.312738,2.00143 -0.06927,-0.14765 c -0.428981,-0.92472 -1.904126,-1.14541 -3.308377,-0.49397 -1.404252,0.65143 -2.189802,1.92066 -1.760822,2.84538 l 0.06927,0.14765 -0.0073,0.004 -0.06927,-0.14764 c -0.428979,-0.92472 -1.904123,-1.14542 -3.308375,-0.49398 -1.404253,0.65144 -2.189803,1.92066 -1.760823,2.84539 l 0.06927,0.14764 -0.03099,0.0146 -0.06744,-0.14764 c -0.428981,-0.92472 -1.905948,-1.14542 -3.3102,-0.49398 -1.404252,0.65144 -2.187979,1.92066 -1.758999,2.84539 l 0.06744,0.14764 -0.0073,0.004 -0.06744,-0.14765 c -0.42898,-0.92472 -1.905947,-1.14541 -3.310199,-0.49398 -1.404252,0.65144 -2.18798,1.92067 -1.758999,2.84539 l 0.06744,0.14765 -8.731197,4.05025 c -0.245924,0.11409 0.03543,1.23959 0.630687,2.52275 0.595261,1.28316 1.272466,2.22489 1.51839,2.1108 l 8.846034,-4.10312 c 0.630334,0.54808 1.823441,0.60971 2.976627,0.0747 1.153135,-0.53494 1.876031,-1.48524 1.864722,-2.32042 l 0.23514,-0.10937 c 0.630233,0.54838 1.823212,0.60981 2.976628,0.0747 1.153134,-0.53495 1.876031,-1.48524 1.864721,-2.32042 l 0.257015,-0.12031 c 0.630231,0.54838 1.823211,0.60981 2.976627,0.0747 1.153495,-0.53511 1.8765,-1.48505 1.864722,-2.32043 l 0.23514,-0.10936 c 0.630231,0.54838 1.823212,0.6098 2.976628,0.0747 1.153493,-0.53511 1.8765,-1.48505 1.864721,-2.32042 l 4.427573,-2.05429 c 0.245925,-0.11409 -0.03543,-1.23959 -0.630687,-2.52275 -0.595261,-1.28316 -1.272466,-2.22489 -1.51839,-2.1108 z" fill="#000000" fill-opacity="1" stroke="none"/><path style="" d="m 71.56344,954.68411 c -0.255289,-0.0912 -0.843592,0.90825 -1.319705,2.24022 -0.47611,1.33196 -0.654481,2.47707 -0.399192,2.56832 l 4.595271,1.64234 c 0.06298,0.83362 0.872284,1.71524 2.070697,2.14361 1.198163,0.42828 2.379297,0.25817 2.956577,-0.34633 l 0.242431,0.0875 c 0.06358,0.83332 0.870962,1.7136 2.068875,2.14179 1.198164,0.42828 2.381119,0.25817 2.9584,-0.34633 l 0.267951,0.0966 c 0.06368,0.83326 0.86922,1.71362 2.067051,2.14178 1.197548,0.42807 2.380785,0.25923 2.9584,-0.34451 l 0.244255,0.0875 c 0.06413,0.83303 0.86959,1.71375 2.067052,2.14178 1.1979,0.42819 2.380976,0.25785 2.9584,-0.34633 l 9.181427,3.28286 c 0.25529,0.0913 0.84359,-0.90825 1.3197,-2.24022 0.47612,-1.33197 0.65448,-2.47706 0.39919,-2.56832 l -9.062938,-3.24093 0.05468,-0.15312 c 0.343113,-0.95989 -0.554696,-2.15299 -2.012368,-2.67404 -1.457671,-0.52104 -2.906933,-0.16697 -3.250047,0.79292 l -0.05468,0.15311 -0.0073,-0.002 0.05468,-0.15311 c 0.343113,-0.9599 -0.554695,-2.153 -2.012367,-2.67405 -1.457672,-0.52104 -2.906935,-0.16697 -3.250048,0.79292 l -0.05468,0.15311 -0.03099,-0.0109 0.05468,-0.15312 c 0.343113,-0.95989 -0.554696,-2.153 -2.012368,-2.67404 -1.457672,-0.52105 -2.906934,-0.16698 -3.250047,0.79292 l -0.05468,0.15129 -0.0073,-0.002 0.05468,-0.15311 c 0.343113,-0.95989 -0.554696,-2.15118 -2.012367,-2.67222 -1.457672,-0.52104 -2.906935,-0.1688 -3.250048,0.79109 l -0.05468,0.15312 -4.478612,-1.60042 z" fill="#000000" fill-opacity="1" stroke="none"/></g></g><text x="0" y="115" fill="#000000" font-size="5px" font-weight="bold" font-family="'Helvetica Neue', Helvetica, Arial-Unicode, Arial, Sans-serif">Created by anbileru adaleru</text><text x="0" y="120" fill="#000000" font-size="5px" font-weight="bold" font-family="'Helvetica Neue', Helvetica, Arial-Unicode, Arial, Sans-serif">from the Noun Project</text></svg>